<mxfile host="app.diagrams.net" modified="2023-02-16T08:15:02.959Z" agent="5.0 (Macintosh; Intel Mac OS X 10_15_7) AppleWebKit/537.36 (KHTML, like Gecko) Chrome/109.0.0.0 Safari/537.36" etag="DPzEUcmcPInZfEV950sG" version="20.8.20" type="github">
  <diagram id="C5RBs43oDa-KdzZeNtuy" name="Page-1">
    <mxGraphModel dx="2879" dy="1148" grid="1" gridSize="10" guides="1" tooltips="1" connect="1" arrows="1" fold="1" page="1" pageScale="1" pageWidth="827" pageHeight="1169" math="0" shadow="0">
      <root>
        <mxCell id="WIyWlLk6GJQsqaUBKTNV-0" />
        <mxCell id="WIyWlLk6GJQsqaUBKTNV-1" parent="WIyWlLk6GJQsqaUBKTNV-0" />
        <mxCell id="WIyWlLk6GJQsqaUBKTNV-2" value="" style="rounded=0;html=1;jettySize=auto;orthogonalLoop=1;fontSize=11;endArrow=block;endFill=0;endSize=8;strokeWidth=1;shadow=0;labelBackgroundColor=none;edgeStyle=orthogonalEdgeStyle;" parent="WIyWlLk6GJQsqaUBKTNV-1" source="WIyWlLk6GJQsqaUBKTNV-3" target="WIyWlLk6GJQsqaUBKTNV-6" edge="1">
          <mxGeometry relative="1" as="geometry" />
        </mxCell>
        <mxCell id="WIyWlLk6GJQsqaUBKTNV-3" value="entry" style="rounded=1;whiteSpace=wrap;html=1;fontSize=12;glass=0;strokeWidth=1;shadow=0;" parent="WIyWlLk6GJQsqaUBKTNV-1" vertex="1">
          <mxGeometry x="160" y="90" width="120" height="40" as="geometry" />
        </mxCell>
        <mxCell id="WIyWlLk6GJQsqaUBKTNV-5" value="No" style="edgeStyle=orthogonalEdgeStyle;rounded=0;html=1;jettySize=auto;orthogonalLoop=1;fontSize=11;endArrow=block;endFill=0;endSize=8;strokeWidth=1;shadow=0;labelBackgroundColor=none;" parent="WIyWlLk6GJQsqaUBKTNV-1" source="WIyWlLk6GJQsqaUBKTNV-6" target="WIyWlLk6GJQsqaUBKTNV-7" edge="1">
          <mxGeometry y="10" relative="1" as="geometry">
            <mxPoint as="offset" />
          </mxGeometry>
        </mxCell>
        <mxCell id="yk6-KxCTzFVwfwhHIDTs-6" style="edgeStyle=orthogonalEdgeStyle;rounded=0;orthogonalLoop=1;jettySize=auto;html=1;exitX=0.5;exitY=1;exitDx=0;exitDy=0;entryX=0.5;entryY=0;entryDx=0;entryDy=0;" parent="WIyWlLk6GJQsqaUBKTNV-1" source="WIyWlLk6GJQsqaUBKTNV-6" target="yk6-KxCTzFVwfwhHIDTs-2" edge="1">
          <mxGeometry relative="1" as="geometry">
            <Array as="points">
              <mxPoint x="220" y="280" />
            </Array>
          </mxGeometry>
        </mxCell>
        <mxCell id="yk6-KxCTzFVwfwhHIDTs-7" style="edgeStyle=orthogonalEdgeStyle;rounded=0;orthogonalLoop=1;jettySize=auto;html=1;exitX=0.5;exitY=1;exitDx=0;exitDy=0;entryX=0.5;entryY=0;entryDx=0;entryDy=0;" parent="WIyWlLk6GJQsqaUBKTNV-1" source="WIyWlLk6GJQsqaUBKTNV-6" target="WIyWlLk6GJQsqaUBKTNV-10" edge="1">
          <mxGeometry relative="1" as="geometry">
            <Array as="points">
              <mxPoint x="220" y="280" />
            </Array>
          </mxGeometry>
        </mxCell>
        <mxCell id="WIyWlLk6GJQsqaUBKTNV-6" value="resolved？" style="rhombus;whiteSpace=wrap;html=1;shadow=0;fontFamily=Helvetica;fontSize=12;align=center;strokeWidth=1;spacing=6;spacingTop=-4;" parent="WIyWlLk6GJQsqaUBKTNV-1" vertex="1">
          <mxGeometry x="170" y="170" width="100" height="70" as="geometry" />
        </mxCell>
        <mxCell id="-5bS65-Dsn9UAwPCuVP0-116" style="edgeStyle=orthogonalEdgeStyle;rounded=0;orthogonalLoop=1;jettySize=auto;html=1;exitX=0.5;exitY=1;exitDx=0;exitDy=0;" edge="1" parent="WIyWlLk6GJQsqaUBKTNV-1" source="WIyWlLk6GJQsqaUBKTNV-7">
          <mxGeometry relative="1" as="geometry">
            <mxPoint x="220" y="280" as="targetPoint" />
            <Array as="points">
              <mxPoint x="495" y="250" />
              <mxPoint x="220" y="250" />
            </Array>
          </mxGeometry>
        </mxCell>
        <mxCell id="WIyWlLk6GJQsqaUBKTNV-7" value="const MetroResolver = require(&#39;metro-resolver&#39;);" style="rounded=1;whiteSpace=wrap;html=1;fontSize=12;glass=0;strokeWidth=1;shadow=0;" parent="WIyWlLk6GJQsqaUBKTNV-1" vertex="1">
          <mxGeometry x="350" y="185" width="290" height="40" as="geometry" />
        </mxCell>
        <mxCell id="yk6-KxCTzFVwfwhHIDTs-12" style="edgeStyle=orthogonalEdgeStyle;rounded=0;orthogonalLoop=1;jettySize=auto;html=1;exitX=0.5;exitY=1;exitDx=0;exitDy=0;" parent="WIyWlLk6GJQsqaUBKTNV-1" source="WIyWlLk6GJQsqaUBKTNV-10" target="WIyWlLk6GJQsqaUBKTNV-12" edge="1">
          <mxGeometry relative="1" as="geometry" />
        </mxCell>
        <mxCell id="WIyWlLk6GJQsqaUBKTNV-10" value="isCode？" style="rhombus;whiteSpace=wrap;html=1;shadow=0;fontFamily=Helvetica;fontSize=12;align=center;strokeWidth=1;spacing=6;spacingTop=-4;" parent="WIyWlLk6GJQsqaUBKTNV-1" vertex="1">
          <mxGeometry x="250" y="280" width="90" height="70" as="geometry" />
        </mxCell>
        <mxCell id="yk6-KxCTzFVwfwhHIDTs-22" style="edgeStyle=orthogonalEdgeStyle;rounded=0;orthogonalLoop=1;jettySize=auto;html=1;exitX=0.5;exitY=1;exitDx=0;exitDy=0;entryX=0.5;entryY=0;entryDx=0;entryDy=0;" parent="WIyWlLk6GJQsqaUBKTNV-1" source="WIyWlLk6GJQsqaUBKTNV-11" target="yk6-KxCTzFVwfwhHIDTs-19" edge="1">
          <mxGeometry relative="1" as="geometry" />
        </mxCell>
        <mxCell id="WIyWlLk6GJQsqaUBKTNV-11" value="Serialization" style="rounded=1;whiteSpace=wrap;html=1;fontSize=12;glass=0;strokeWidth=1;shadow=0;" parent="WIyWlLk6GJQsqaUBKTNV-1" vertex="1">
          <mxGeometry x="170" y="500" width="120" height="40" as="geometry" />
        </mxCell>
        <mxCell id="yk6-KxCTzFVwfwhHIDTs-23" style="edgeStyle=orthogonalEdgeStyle;rounded=0;orthogonalLoop=1;jettySize=auto;html=1;exitX=0.5;exitY=1;exitDx=0;exitDy=0;entryX=0.5;entryY=0;entryDx=0;entryDy=0;" parent="WIyWlLk6GJQsqaUBKTNV-1" source="WIyWlLk6GJQsqaUBKTNV-12" target="WIyWlLk6GJQsqaUBKTNV-11" edge="1">
          <mxGeometry relative="1" as="geometry" />
        </mxCell>
        <mxCell id="WIyWlLk6GJQsqaUBKTNV-12" value="&lt;meta charset=&quot;utf-8&quot;&gt;&lt;span style=&quot;color: rgb(0, 0, 0); font-family: Helvetica; font-size: 12px; font-style: normal; font-variant-ligatures: normal; font-variant-caps: normal; font-weight: 400; letter-spacing: normal; orphans: 2; text-align: left; text-indent: 0px; text-transform: none; widows: 2; word-spacing: 0px; -webkit-text-stroke-width: 0px; background-color: rgb(251, 251, 251); text-decoration-thickness: initial; text-decoration-style: initial; text-decoration-color: initial; float: none; display: inline !important;&quot;&gt;const MetroBabelTransformer = require(&#39;metro-react-native-babel-transformer&#39;);&lt;/span&gt;&lt;br style=&quot;border-color: var(--border-color); color: rgb(0, 0, 0); font-family: Helvetica; font-size: 12px; font-style: normal; font-variant-ligatures: normal; font-variant-caps: normal; font-weight: 400; letter-spacing: normal; orphans: 2; text-align: left; text-indent: 0px; text-transform: none; widows: 2; word-spacing: 0px; -webkit-text-stroke-width: 0px; background-color: rgb(251, 251, 251); text-decoration-thickness: initial; text-decoration-style: initial; text-decoration-color: initial;&quot;&gt;" style="rounded=1;whiteSpace=wrap;html=1;fontSize=12;glass=0;strokeWidth=1;shadow=0;" parent="WIyWlLk6GJQsqaUBKTNV-1" vertex="1">
          <mxGeometry x="240" y="400" width="470" height="40" as="geometry" />
        </mxCell>
        <mxCell id="5LdNp1swamGVDtRg0BKm-34" value="metro-crn构建生命周期" style="rounded=0;whiteSpace=wrap;html=1;" parent="WIyWlLk6GJQsqaUBKTNV-1" vertex="1">
          <mxGeometry x="120" y="10" width="230" height="60" as="geometry" />
        </mxCell>
        <mxCell id="yk6-KxCTzFVwfwhHIDTs-0" value="const MetroBabelTransformer = require(&#39;metro-react-native-babel-transformer&#39;);&#xa;const MetroResolver = require(&#39;metro-resolver&#39;);&#xa;const TaroStyleTransformer = require(&#39;@tarojs/rn-style-transformer&#39;);" style="text;whiteSpace=wrap;html=1;" parent="WIyWlLk6GJQsqaUBKTNV-1" vertex="1">
          <mxGeometry x="791" y="40" width="450" height="70" as="geometry" />
        </mxCell>
        <mxCell id="yk6-KxCTzFVwfwhHIDTs-20" style="edgeStyle=orthogonalEdgeStyle;rounded=0;orthogonalLoop=1;jettySize=auto;html=1;exitX=0.5;exitY=1;exitDx=0;exitDy=0;entryX=0.5;entryY=0;entryDx=0;entryDy=0;" parent="WIyWlLk6GJQsqaUBKTNV-1" source="yk6-KxCTzFVwfwhHIDTs-1" target="WIyWlLk6GJQsqaUBKTNV-11" edge="1">
          <mxGeometry relative="1" as="geometry">
            <Array as="points">
              <mxPoint x="15" y="470" />
              <mxPoint x="230" y="470" />
            </Array>
          </mxGeometry>
        </mxCell>
        <mxCell id="yk6-KxCTzFVwfwhHIDTs-1" value="const TaroStyleTransformer = require(&#39;@tarojs/rn-style-transformer&#39;);" style="rounded=1;whiteSpace=wrap;html=1;fontSize=12;glass=0;strokeWidth=1;shadow=0;fillColor=#fff2cc;strokeColor=#d6b656;" parent="WIyWlLk6GJQsqaUBKTNV-1" vertex="1">
          <mxGeometry x="-190" y="400" width="410" height="40" as="geometry" />
        </mxCell>
        <mxCell id="yk6-KxCTzFVwfwhHIDTs-15" style="edgeStyle=orthogonalEdgeStyle;rounded=0;orthogonalLoop=1;jettySize=auto;html=1;exitX=0.5;exitY=1;exitDx=0;exitDy=0;entryX=0.5;entryY=0;entryDx=0;entryDy=0;" parent="WIyWlLk6GJQsqaUBKTNV-1" source="yk6-KxCTzFVwfwhHIDTs-2" target="yk6-KxCTzFVwfwhHIDTs-1" edge="1">
          <mxGeometry relative="1" as="geometry" />
        </mxCell>
        <mxCell id="yk6-KxCTzFVwfwhHIDTs-2" value="isStyle？" style="rhombus;whiteSpace=wrap;html=1;shadow=0;fontFamily=Helvetica;fontSize=12;align=center;strokeWidth=1;spacing=6;spacingTop=-4;" parent="WIyWlLk6GJQsqaUBKTNV-1" vertex="1">
          <mxGeometry x="120" y="280" width="80" height="80" as="geometry" />
        </mxCell>
        <mxCell id="yk6-KxCTzFVwfwhHIDTs-8" value="Yes" style="text;html=1;align=center;verticalAlign=middle;resizable=0;points=[];autosize=1;strokeColor=none;fillColor=none;" parent="WIyWlLk6GJQsqaUBKTNV-1" vertex="1">
          <mxGeometry x="60" y="350" width="40" height="30" as="geometry" />
        </mxCell>
        <mxCell id="yk6-KxCTzFVwfwhHIDTs-10" value="Yes" style="text;html=1;align=center;verticalAlign=middle;resizable=0;points=[];autosize=1;strokeColor=none;fillColor=none;" parent="WIyWlLk6GJQsqaUBKTNV-1" vertex="1">
          <mxGeometry x="360" y="340" width="40" height="30" as="geometry" />
        </mxCell>
        <mxCell id="yk6-KxCTzFVwfwhHIDTs-16" value="&lt;span style=&quot;box-sizing: border-box; font-size: var(--ifm-h3-font-size); scroll-margin-top: calc(var(--ifm-navbar-height) + 0.5rem); --ifm-h3-font-size: 1.5rem; letter-spacing: normal; orphans: 2; text-indent: 0px; text-transform: none; widows: 2; word-spacing: 0px; -webkit-text-stroke-width: 0px; color: rgb(28, 30, 33); font-family: system-ui, -apple-system, &amp;quot;Segoe UI&amp;quot;, Roboto, Ubuntu, Cantarell, &amp;quot;Noto Sans&amp;quot;, sans-serif, system-ui, &amp;quot;Segoe UI&amp;quot;, Helvetica, Arial, sans-serif, &amp;quot;Apple Color Emoji&amp;quot;, &amp;quot;Segoe UI Emoji&amp;quot;, &amp;quot;Segoe UI Symbol&amp;quot;; font-variant-caps: normal; font-variant-ligatures: normal; line-height: var(--ifm-heading-line-height);&quot;&gt;Resolution&lt;/span&gt;" style="text;whiteSpace=wrap;html=1;fillColor=#d5e8d4;strokeColor=#82b366;" parent="WIyWlLk6GJQsqaUBKTNV-1" vertex="1">
          <mxGeometry x="-260" y="175" width="190" height="50" as="geometry" />
        </mxCell>
        <mxCell id="yk6-KxCTzFVwfwhHIDTs-17" value="&lt;span style=&quot;box-sizing: border-box; font-size: var(--ifm-h3-font-size); scroll-margin-top: calc(var(--ifm-navbar-height) + 0.5rem); --ifm-h3-font-size: 1.5rem; letter-spacing: normal; orphans: 2; text-indent: 0px; text-transform: none; widows: 2; word-spacing: 0px; -webkit-text-stroke-width: 0px; color: rgb(28, 30, 33); font-family: system-ui, -apple-system, &amp;quot;Segoe UI&amp;quot;, Roboto, Ubuntu, Cantarell, &amp;quot;Noto Sans&amp;quot;, sans-serif, system-ui, &amp;quot;Segoe UI&amp;quot;, Helvetica, Arial, sans-serif, &amp;quot;Apple Color Emoji&amp;quot;, &amp;quot;Segoe UI Emoji&amp;quot;, &amp;quot;Segoe UI Symbol&amp;quot;; font-variant-caps: normal; font-variant-ligatures: normal; line-height: var(--ifm-heading-line-height);&quot;&gt;Transformation&lt;/span&gt;" style="text;whiteSpace=wrap;html=1;fillColor=#d5e8d4;strokeColor=#82b366;" parent="WIyWlLk6GJQsqaUBKTNV-1" vertex="1">
          <mxGeometry x="-260" y="280" width="190" height="50" as="geometry" />
        </mxCell>
        <mxCell id="yk6-KxCTzFVwfwhHIDTs-18" value="&lt;span style=&quot;box-sizing: border-box; font-size: var(--ifm-h3-font-size); scroll-margin-top: calc(var(--ifm-navbar-height) + 0.5rem); --ifm-h3-font-size: 1.5rem; letter-spacing: normal; orphans: 2; text-indent: 0px; text-transform: none; widows: 2; word-spacing: 0px; -webkit-text-stroke-width: 0px; color: rgb(28, 30, 33); font-family: system-ui, -apple-system, &amp;quot;Segoe UI&amp;quot;, Roboto, Ubuntu, Cantarell, &amp;quot;Noto Sans&amp;quot;, sans-serif, system-ui, &amp;quot;Segoe UI&amp;quot;, Helvetica, Arial, sans-serif, &amp;quot;Apple Color Emoji&amp;quot;, &amp;quot;Segoe UI Emoji&amp;quot;, &amp;quot;Segoe UI Symbol&amp;quot;; font-variant-caps: normal; font-variant-ligatures: normal; line-height: var(--ifm-heading-line-height);&quot;&gt;Serialization&lt;/span&gt;" style="text;whiteSpace=wrap;html=1;fillColor=#d5e8d4;strokeColor=#82b366;" parent="WIyWlLk6GJQsqaUBKTNV-1" vertex="1">
          <mxGeometry x="-260" y="500" width="180" height="50" as="geometry" />
        </mxCell>
        <mxCell id="yk6-KxCTzFVwfwhHIDTs-19" value="bundle" style="rounded=1;whiteSpace=wrap;html=1;fontSize=12;glass=0;strokeWidth=1;shadow=0;" parent="WIyWlLk6GJQsqaUBKTNV-1" vertex="1">
          <mxGeometry x="170" y="600" width="120" height="40" as="geometry" />
        </mxCell>
        <mxCell id="-5bS65-Dsn9UAwPCuVP0-53" value="" style="edgeStyle=orthogonalEdgeStyle;rounded=0;orthogonalLoop=1;jettySize=auto;html=1;" edge="1" parent="WIyWlLk6GJQsqaUBKTNV-1" target="-5bS65-Dsn9UAwPCuVP0-16">
          <mxGeometry relative="1" as="geometry">
            <mxPoint x="-112" y="1550" as="sourcePoint" />
          </mxGeometry>
        </mxCell>
        <mxCell id="-5bS65-Dsn9UAwPCuVP0-61" value="" style="edgeStyle=orthogonalEdgeStyle;rounded=0;orthogonalLoop=1;jettySize=auto;html=1;" edge="1" parent="WIyWlLk6GJQsqaUBKTNV-1" target="-5bS65-Dsn9UAwPCuVP0-16">
          <mxGeometry relative="1" as="geometry">
            <mxPoint x="-105" y="1550" as="sourcePoint" />
          </mxGeometry>
        </mxCell>
        <mxCell id="-5bS65-Dsn9UAwPCuVP0-0" value="&lt;div&gt;if (&lt;/div&gt;&lt;div&gt;&amp;nbsp; &amp;nbsp; params.filename.match(/^src\/taro|support\/.*\.(js|jsx|ts|tsx)$/) ||&amp;nbsp;&lt;/div&gt;&lt;div&gt;&amp;nbsp; &amp;nbsp; whiteList.some(pkgName =&amp;gt; {&lt;/div&gt;&lt;div&gt;&amp;nbsp; &amp;nbsp; &amp;nbsp; return params.filename.indexOf(pkgName) !== -1;&lt;/div&gt;&lt;div&gt;&amp;nbsp; &amp;nbsp; }&lt;/div&gt;&lt;div&gt;&amp;nbsp; ))&lt;/div&gt;" style="text;html=1;align=center;verticalAlign=middle;resizable=0;points=[];autosize=1;strokeColor=#82b366;fillColor=#d5e8d4;" vertex="1" parent="WIyWlLk6GJQsqaUBKTNV-1">
          <mxGeometry x="-485" y="1500" width="370" height="100" as="geometry" />
        </mxCell>
        <mxCell id="-5bS65-Dsn9UAwPCuVP0-6" style="edgeStyle=orthogonalEdgeStyle;rounded=0;orthogonalLoop=1;jettySize=auto;html=1;exitX=0.5;exitY=1;exitDx=0;exitDy=0;entryX=0.5;entryY=0;entryDx=0;entryDy=0;" edge="1" parent="WIyWlLk6GJQsqaUBKTNV-1" source="-5bS65-Dsn9UAwPCuVP0-1" target="-5bS65-Dsn9UAwPCuVP0-5">
          <mxGeometry relative="1" as="geometry" />
        </mxCell>
        <mxCell id="-5bS65-Dsn9UAwPCuVP0-1" value="transformCssModuleClassName" style="whiteSpace=wrap;html=1;" vertex="1" parent="WIyWlLk6GJQsqaUBKTNV-1">
          <mxGeometry x="98" y="1590" width="240" height="40" as="geometry" />
        </mxCell>
        <mxCell id="-5bS65-Dsn9UAwPCuVP0-58" value="" style="edgeStyle=orthogonalEdgeStyle;rounded=0;orthogonalLoop=1;jettySize=auto;html=1;" edge="1" parent="WIyWlLk6GJQsqaUBKTNV-1" source="-5bS65-Dsn9UAwPCuVP0-2" target="-5bS65-Dsn9UAwPCuVP0-4">
          <mxGeometry relative="1" as="geometry" />
        </mxCell>
        <mxCell id="-5bS65-Dsn9UAwPCuVP0-2" value="babel-plugin-transform-react-jsx-to-rn-stylesheet" style="whiteSpace=wrap;html=1;fillColor=#fff2cc;strokeColor=#d6b656;" vertex="1" parent="WIyWlLk6GJQsqaUBKTNV-1">
          <mxGeometry x="328" y="1722.5" width="280" height="25" as="geometry" />
        </mxCell>
        <mxCell id="-5bS65-Dsn9UAwPCuVP0-11" style="edgeStyle=orthogonalEdgeStyle;rounded=0;orthogonalLoop=1;jettySize=auto;html=1;exitX=0.5;exitY=1;exitDx=0;exitDy=0;entryX=0.5;entryY=0;entryDx=0;entryDy=0;" edge="1" parent="WIyWlLk6GJQsqaUBKTNV-1" source="-5bS65-Dsn9UAwPCuVP0-4" target="-5bS65-Dsn9UAwPCuVP0-10">
          <mxGeometry relative="1" as="geometry" />
        </mxCell>
        <mxCell id="-5bS65-Dsn9UAwPCuVP0-4" value="transformFromAstSync" style="whiteSpace=wrap;html=1;" vertex="1" parent="WIyWlLk6GJQsqaUBKTNV-1">
          <mxGeometry x="128" y="1720" width="160" height="30" as="geometry" />
        </mxCell>
        <mxCell id="-5bS65-Dsn9UAwPCuVP0-7" style="edgeStyle=orthogonalEdgeStyle;rounded=0;orthogonalLoop=1;jettySize=auto;html=1;exitX=0.5;exitY=1;exitDx=0;exitDy=0;entryX=0.5;entryY=0;entryDx=0;entryDy=0;" edge="1" parent="WIyWlLk6GJQsqaUBKTNV-1" source="-5bS65-Dsn9UAwPCuVP0-5" target="-5bS65-Dsn9UAwPCuVP0-4">
          <mxGeometry relative="1" as="geometry" />
        </mxCell>
        <mxCell id="-5bS65-Dsn9UAwPCuVP0-5" value="parseSync" style="whiteSpace=wrap;html=1;" vertex="1" parent="WIyWlLk6GJQsqaUBKTNV-1">
          <mxGeometry x="128" y="1660" width="160" height="30" as="geometry" />
        </mxCell>
        <mxCell id="-5bS65-Dsn9UAwPCuVP0-23" style="edgeStyle=orthogonalEdgeStyle;rounded=0;orthogonalLoop=1;jettySize=auto;html=1;exitX=0.5;exitY=1;exitDx=0;exitDy=0;entryX=0.5;entryY=0;entryDx=0;entryDy=0;" edge="1" parent="WIyWlLk6GJQsqaUBKTNV-1" source="-5bS65-Dsn9UAwPCuVP0-10" target="-5bS65-Dsn9UAwPCuVP0-20">
          <mxGeometry relative="1" as="geometry" />
        </mxCell>
        <mxCell id="-5bS65-Dsn9UAwPCuVP0-10" value="transformResult" style="whiteSpace=wrap;html=1;" vertex="1" parent="WIyWlLk6GJQsqaUBKTNV-1">
          <mxGeometry x="148" y="1790" width="120" height="30" as="geometry" />
        </mxCell>
        <mxCell id="-5bS65-Dsn9UAwPCuVP0-13" value="" style="edgeStyle=orthogonalEdgeStyle;rounded=0;orthogonalLoop=1;jettySize=auto;html=1;" edge="1" parent="WIyWlLk6GJQsqaUBKTNV-1" source="-5bS65-Dsn9UAwPCuVP0-12" target="-5bS65-Dsn9UAwPCuVP0-10">
          <mxGeometry relative="1" as="geometry" />
        </mxCell>
        <mxCell id="-5bS65-Dsn9UAwPCuVP0-12" value="code&lt;br&gt;sourceMap" style="shape=process;whiteSpace=wrap;html=1;backgroundOutline=1;" vertex="1" parent="WIyWlLk6GJQsqaUBKTNV-1">
          <mxGeometry x="312" y="1780" width="100" height="50" as="geometry" />
        </mxCell>
        <mxCell id="-5bS65-Dsn9UAwPCuVP0-17" style="edgeStyle=orthogonalEdgeStyle;rounded=0;orthogonalLoop=1;jettySize=auto;html=1;exitX=0.5;exitY=1;exitDx=0;exitDy=0;entryX=0.5;entryY=0;entryDx=0;entryDy=0;" edge="1" parent="WIyWlLk6GJQsqaUBKTNV-1" source="-5bS65-Dsn9UAwPCuVP0-15" target="-5bS65-Dsn9UAwPCuVP0-16">
          <mxGeometry relative="1" as="geometry" />
        </mxCell>
        <mxCell id="-5bS65-Dsn9UAwPCuVP0-15" value="codeTransform" style="whiteSpace=wrap;html=1;" vertex="1" parent="WIyWlLk6GJQsqaUBKTNV-1">
          <mxGeometry x="-45" y="1440" width="120" height="40" as="geometry" />
        </mxCell>
        <mxCell id="-5bS65-Dsn9UAwPCuVP0-19" style="edgeStyle=orthogonalEdgeStyle;rounded=0;orthogonalLoop=1;jettySize=auto;html=1;exitX=1;exitY=0.5;exitDx=0;exitDy=0;entryX=0.5;entryY=0;entryDx=0;entryDy=0;" edge="1" parent="WIyWlLk6GJQsqaUBKTNV-1" source="-5bS65-Dsn9UAwPCuVP0-16" target="-5bS65-Dsn9UAwPCuVP0-1">
          <mxGeometry relative="1" as="geometry" />
        </mxCell>
        <mxCell id="-5bS65-Dsn9UAwPCuVP0-22" style="edgeStyle=orthogonalEdgeStyle;rounded=0;orthogonalLoop=1;jettySize=auto;html=1;exitX=0.5;exitY=1;exitDx=0;exitDy=0;entryX=0.5;entryY=0;entryDx=0;entryDy=0;" edge="1" parent="WIyWlLk6GJQsqaUBKTNV-1" source="-5bS65-Dsn9UAwPCuVP0-16" target="-5bS65-Dsn9UAwPCuVP0-20">
          <mxGeometry relative="1" as="geometry" />
        </mxCell>
        <mxCell id="-5bS65-Dsn9UAwPCuVP0-16" value="needProcessCssModule&lt;br&gt;" style="rhombus;whiteSpace=wrap;html=1;" vertex="1" parent="WIyWlLk6GJQsqaUBKTNV-1">
          <mxGeometry x="-65" y="1520" width="160" height="60" as="geometry" />
        </mxCell>
        <mxCell id="-5bS65-Dsn9UAwPCuVP0-20" value="metroTransformer" style="whiteSpace=wrap;html=1;" vertex="1" parent="WIyWlLk6GJQsqaUBKTNV-1">
          <mxGeometry x="-45" y="1870" width="120" height="60" as="geometry" />
        </mxCell>
        <mxCell id="-5bS65-Dsn9UAwPCuVP0-21" value="Yes" style="text;html=1;align=center;verticalAlign=middle;resizable=0;points=[];autosize=1;strokeColor=none;fillColor=none;" vertex="1" parent="WIyWlLk6GJQsqaUBKTNV-1">
          <mxGeometry x="165" y="1525" width="40" height="30" as="geometry" />
        </mxCell>
        <mxCell id="-5bS65-Dsn9UAwPCuVP0-24" value="code" style="text;html=1;align=center;verticalAlign=middle;resizable=0;points=[];autosize=1;strokeColor=none;fillColor=none;" vertex="1" parent="WIyWlLk6GJQsqaUBKTNV-1">
          <mxGeometry x="110" y="1815" width="50" height="30" as="geometry" />
        </mxCell>
        <mxCell id="-5bS65-Dsn9UAwPCuVP0-25" value="stylesheet的sourceMap处理信息丢失" style="text;html=1;align=center;verticalAlign=middle;resizable=0;points=[];autosize=1;strokeColor=none;fillColor=none;" vertex="1" parent="WIyWlLk6GJQsqaUBKTNV-1">
          <mxGeometry x="308" y="1840" width="220" height="30" as="geometry" />
        </mxCell>
        <mxCell id="-5bS65-Dsn9UAwPCuVP0-54" style="edgeStyle=orthogonalEdgeStyle;rounded=0;orthogonalLoop=1;jettySize=auto;html=1;entryX=0;entryY=0.5;entryDx=0;entryDy=0;" edge="1" parent="WIyWlLk6GJQsqaUBKTNV-1" source="-5bS65-Dsn9UAwPCuVP0-26" target="-5bS65-Dsn9UAwPCuVP0-20">
          <mxGeometry relative="1" as="geometry" />
        </mxCell>
        <mxCell id="-5bS65-Dsn9UAwPCuVP0-26" value="metro-react-native-babel-transformer" style="text;whiteSpace=wrap;html=1;fillColor=#d5e8d4;strokeColor=#82b366;" vertex="1" parent="WIyWlLk6GJQsqaUBKTNV-1">
          <mxGeometry x="-395" y="1880" width="230" height="40" as="geometry" />
        </mxCell>
        <mxCell id="-5bS65-Dsn9UAwPCuVP0-35" style="edgeStyle=orthogonalEdgeStyle;rounded=0;orthogonalLoop=1;jettySize=auto;html=1;entryX=0.5;entryY=0;entryDx=0;entryDy=0;" edge="1" parent="WIyWlLk6GJQsqaUBKTNV-1" source="-5bS65-Dsn9UAwPCuVP0-27" target="-5bS65-Dsn9UAwPCuVP0-28">
          <mxGeometry relative="1" as="geometry" />
        </mxCell>
        <mxCell id="-5bS65-Dsn9UAwPCuVP0-36" style="edgeStyle=orthogonalEdgeStyle;rounded=0;orthogonalLoop=1;jettySize=auto;html=1;entryX=0.5;entryY=0;entryDx=0;entryDy=0;" edge="1" parent="WIyWlLk6GJQsqaUBKTNV-1" source="-5bS65-Dsn9UAwPCuVP0-27" target="-5bS65-Dsn9UAwPCuVP0-29">
          <mxGeometry relative="1" as="geometry" />
        </mxCell>
        <mxCell id="-5bS65-Dsn9UAwPCuVP0-42" style="edgeStyle=orthogonalEdgeStyle;rounded=0;orthogonalLoop=1;jettySize=auto;html=1;exitX=1;exitY=0.5;exitDx=0;exitDy=0;entryX=0.555;entryY=-0.048;entryDx=0;entryDy=0;entryPerimeter=0;" edge="1" parent="WIyWlLk6GJQsqaUBKTNV-1" source="-5bS65-Dsn9UAwPCuVP0-27" target="-5bS65-Dsn9UAwPCuVP0-41">
          <mxGeometry relative="1" as="geometry" />
        </mxCell>
        <mxCell id="-5bS65-Dsn9UAwPCuVP0-27" value="@ctrip/xtao-metro-crn" style="whiteSpace=wrap;html=1;" vertex="1" parent="WIyWlLk6GJQsqaUBKTNV-1">
          <mxGeometry x="185" y="830" width="120" height="40" as="geometry" />
        </mxCell>
        <mxCell id="-5bS65-Dsn9UAwPCuVP0-32" value="" style="edgeStyle=orthogonalEdgeStyle;rounded=0;orthogonalLoop=1;jettySize=auto;html=1;" edge="1" parent="WIyWlLk6GJQsqaUBKTNV-1" source="-5bS65-Dsn9UAwPCuVP0-28" target="-5bS65-Dsn9UAwPCuVP0-31">
          <mxGeometry relative="1" as="geometry" />
        </mxCell>
        <mxCell id="-5bS65-Dsn9UAwPCuVP0-28" value="resolver" style="whiteSpace=wrap;html=1;" vertex="1" parent="WIyWlLk6GJQsqaUBKTNV-1">
          <mxGeometry x="-145" y="910" width="120" height="60" as="geometry" />
        </mxCell>
        <mxCell id="-5bS65-Dsn9UAwPCuVP0-34" style="edgeStyle=orthogonalEdgeStyle;rounded=0;orthogonalLoop=1;jettySize=auto;html=1;exitX=0.5;exitY=1;exitDx=0;exitDy=0;entryX=0.5;entryY=0;entryDx=0;entryDy=0;" edge="1" parent="WIyWlLk6GJQsqaUBKTNV-1" source="-5bS65-Dsn9UAwPCuVP0-29" target="-5bS65-Dsn9UAwPCuVP0-33">
          <mxGeometry relative="1" as="geometry" />
        </mxCell>
        <mxCell id="-5bS65-Dsn9UAwPCuVP0-29" value="transformer" style="whiteSpace=wrap;html=1;" vertex="1" parent="WIyWlLk6GJQsqaUBKTNV-1">
          <mxGeometry x="185" y="920" width="120" height="60" as="geometry" />
        </mxCell>
        <mxCell id="-5bS65-Dsn9UAwPCuVP0-31" value="resolveRequest" style="whiteSpace=wrap;html=1;" vertex="1" parent="WIyWlLk6GJQsqaUBKTNV-1">
          <mxGeometry x="-145" y="1000" width="120" height="60" as="geometry" />
        </mxCell>
        <mxCell id="-5bS65-Dsn9UAwPCuVP0-50" style="edgeStyle=orthogonalEdgeStyle;rounded=0;orthogonalLoop=1;jettySize=auto;html=1;exitX=0.5;exitY=1;exitDx=0;exitDy=0;entryX=0.5;entryY=0;entryDx=0;entryDy=0;" edge="1" parent="WIyWlLk6GJQsqaUBKTNV-1" source="-5bS65-Dsn9UAwPCuVP0-33" target="-5bS65-Dsn9UAwPCuVP0-37">
          <mxGeometry relative="1" as="geometry" />
        </mxCell>
        <mxCell id="-5bS65-Dsn9UAwPCuVP0-33" value="babelTransformerPath" style="whiteSpace=wrap;html=1;" vertex="1" parent="WIyWlLk6GJQsqaUBKTNV-1">
          <mxGeometry x="175" y="1020" width="140" height="60" as="geometry" />
        </mxCell>
        <mxCell id="-5bS65-Dsn9UAwPCuVP0-51" value="" style="edgeStyle=orthogonalEdgeStyle;rounded=0;orthogonalLoop=1;jettySize=auto;html=1;" edge="1" parent="WIyWlLk6GJQsqaUBKTNV-1" source="-5bS65-Dsn9UAwPCuVP0-37" target="-5bS65-Dsn9UAwPCuVP0-49">
          <mxGeometry relative="1" as="geometry" />
        </mxCell>
        <mxCell id="-5bS65-Dsn9UAwPCuVP0-37" value="Transformater" style="whiteSpace=wrap;html=1;" vertex="1" parent="WIyWlLk6GJQsqaUBKTNV-1">
          <mxGeometry x="185" y="1110" width="120" height="60" as="geometry" />
        </mxCell>
        <mxCell id="-5bS65-Dsn9UAwPCuVP0-46" value="" style="edgeStyle=orthogonalEdgeStyle;rounded=0;orthogonalLoop=1;jettySize=auto;html=1;" edge="1" parent="WIyWlLk6GJQsqaUBKTNV-1" source="-5bS65-Dsn9UAwPCuVP0-41" target="-5bS65-Dsn9UAwPCuVP0-44">
          <mxGeometry relative="1" as="geometry" />
        </mxCell>
        <mxCell id="-5bS65-Dsn9UAwPCuVP0-41" value="patchTaroRNStyleTransformer" style="whiteSpace=wrap;html=1;" vertex="1" parent="WIyWlLk6GJQsqaUBKTNV-1">
          <mxGeometry x="395" y="920" width="230" height="50" as="geometry" />
        </mxCell>
        <mxCell id="-5bS65-Dsn9UAwPCuVP0-47" value="" style="edgeStyle=orthogonalEdgeStyle;rounded=0;orthogonalLoop=1;jettySize=auto;html=1;" edge="1" parent="WIyWlLk6GJQsqaUBKTNV-1" source="-5bS65-Dsn9UAwPCuVP0-44" target="-5bS65-Dsn9UAwPCuVP0-45">
          <mxGeometry relative="1" as="geometry" />
        </mxCell>
        <mxCell id="-5bS65-Dsn9UAwPCuVP0-44" value="`&#39;.crn&#39; + ext,//CRN Modify \n&amp;nbsp;" style="whiteSpace=wrap;html=1;" vertex="1" parent="WIyWlLk6GJQsqaUBKTNV-1">
          <mxGeometry x="415" y="1020" width="190" height="60" as="geometry" />
        </mxCell>
        <mxCell id="-5bS65-Dsn9UAwPCuVP0-45" value="const TaroRNStyleTransformerPath = process.cwd()+&#39;/node_modules/@tarojs/rn-style-transformer/dist/utils/index.js&#39;;" style="whiteSpace=wrap;html=1;" vertex="1" parent="WIyWlLk6GJQsqaUBKTNV-1">
          <mxGeometry x="380" y="1120" width="260" height="60" as="geometry" />
        </mxCell>
        <mxCell id="-5bS65-Dsn9UAwPCuVP0-48" value="modify @tarojs/rn-style-transformer succeed" style="text;html=1;align=center;verticalAlign=middle;resizable=0;points=[];autosize=1;strokeColor=none;fillColor=none;" vertex="1" parent="WIyWlLk6GJQsqaUBKTNV-1">
          <mxGeometry x="665" y="1135" width="260" height="30" as="geometry" />
        </mxCell>
        <mxCell id="-5bS65-Dsn9UAwPCuVP0-62" style="edgeStyle=orthogonalEdgeStyle;rounded=0;orthogonalLoop=1;jettySize=auto;html=1;exitX=0.5;exitY=1;exitDx=0;exitDy=0;entryX=0.5;entryY=0;entryDx=0;entryDy=0;" edge="1" parent="WIyWlLk6GJQsqaUBKTNV-1" source="-5bS65-Dsn9UAwPCuVP0-49" target="-5bS65-Dsn9UAwPCuVP0-52">
          <mxGeometry relative="1" as="geometry">
            <Array as="points">
              <mxPoint x="237" y="1420" />
              <mxPoint x="688" y="1420" />
            </Array>
          </mxGeometry>
        </mxCell>
        <mxCell id="-5bS65-Dsn9UAwPCuVP0-63" style="edgeStyle=orthogonalEdgeStyle;rounded=0;orthogonalLoop=1;jettySize=auto;html=1;exitX=0.5;exitY=1;exitDx=0;exitDy=0;entryX=0.5;entryY=0;entryDx=0;entryDy=0;" edge="1" parent="WIyWlLk6GJQsqaUBKTNV-1" source="-5bS65-Dsn9UAwPCuVP0-49" target="-5bS65-Dsn9UAwPCuVP0-15">
          <mxGeometry relative="1" as="geometry" />
        </mxCell>
        <mxCell id="-5bS65-Dsn9UAwPCuVP0-49" value="&lt;div&gt;&amp;nbsp; const rules: Record&amp;lt;string, any&amp;gt; = [&lt;/div&gt;&lt;div&gt;&amp;nbsp; &amp;nbsp; {&lt;/div&gt;&lt;div&gt;&amp;nbsp; &amp;nbsp; &amp;nbsp; test: /\.(css|scss|sass|less)$/,&lt;/div&gt;&lt;div&gt;&amp;nbsp; &amp;nbsp; &amp;nbsp; transform: styleTransform,&lt;/div&gt;&lt;div&gt;&amp;nbsp; &amp;nbsp; &amp;nbsp; configOpt: { config: styleConfig },&lt;/div&gt;&lt;div&gt;&amp;nbsp; &amp;nbsp; },&lt;/div&gt;&lt;div&gt;&amp;nbsp; &amp;nbsp; {&lt;/div&gt;&lt;div&gt;&amp;nbsp; &amp;nbsp; &amp;nbsp; test: /\.(js|ts|jsx|tsx)$/,&lt;/div&gt;&lt;div&gt;&amp;nbsp; &amp;nbsp; &amp;nbsp; transform: codeTransform,&lt;/div&gt;&lt;div&gt;&amp;nbsp; &amp;nbsp; },&lt;/div&gt;&lt;div&gt;&amp;nbsp; ];&lt;/div&gt;" style="whiteSpace=wrap;html=1;" vertex="1" parent="WIyWlLk6GJQsqaUBKTNV-1">
          <mxGeometry x="32" y="1210" width="410" height="180" as="geometry" />
        </mxCell>
        <mxCell id="-5bS65-Dsn9UAwPCuVP0-60" style="edgeStyle=orthogonalEdgeStyle;rounded=0;orthogonalLoop=1;jettySize=auto;html=1;exitX=0.5;exitY=1;exitDx=0;exitDy=0;" edge="1" parent="WIyWlLk6GJQsqaUBKTNV-1" source="-5bS65-Dsn9UAwPCuVP0-52" target="-5bS65-Dsn9UAwPCuVP0-59">
          <mxGeometry relative="1" as="geometry" />
        </mxCell>
        <mxCell id="-5bS65-Dsn9UAwPCuVP0-52" value="styleTransform" style="whiteSpace=wrap;html=1;" vertex="1" parent="WIyWlLk6GJQsqaUBKTNV-1">
          <mxGeometry x="628" y="1470" width="120" height="60" as="geometry" />
        </mxCell>
        <mxCell id="-5bS65-Dsn9UAwPCuVP0-59" value="@tarojs/rn-style-transformer" style="whiteSpace=wrap;html=1;fillColor=#fff2cc;strokeColor=#d6b656;" vertex="1" parent="WIyWlLk6GJQsqaUBKTNV-1">
          <mxGeometry x="593" y="1880" width="190" height="60" as="geometry" />
        </mxCell>
        <mxCell id="-5bS65-Dsn9UAwPCuVP0-115" value="xtaro-metro-crn构建生命周期详情" style="rounded=0;whiteSpace=wrap;html=1;" vertex="1" parent="WIyWlLk6GJQsqaUBKTNV-1">
          <mxGeometry x="130" y="740" width="230" height="60" as="geometry" />
        </mxCell>
      </root>
    </mxGraphModel>
  </diagram>
</mxfile>
